<?xml version="1.0" encoding="utf-8"?>
<!-- Generator: Adobe Illustrator 25.2.1, SVG Export Plug-In . SVG Version: 6.00 Build 0)  -->
<svg version="1.1" xmlns="http://www.w3.org/2000/svg" xmlns:xlink="http://www.w3.org/1999/xlink" x="0px" y="0px"
	 viewBox="0 0 111 28" style="enable-background:new 0 0 111 28;" xml:space="preserve">
<style type="text/css">
	.st0{fill:#898989;}
	.st1{font-family:'HiraMaruPro-W4-83pv-RKSJ-H';}
	.st2{font-size:22.2655px;}
	.st3{fill:#068D53;}
	.st4{fill:#FE9510;}
	.st5{fill:#1F5FA8;}
	.st6{fill:#078E53;}
	.st7{fill:#FEFEFE;}
	.st8{fill:#DCAB4A;}
	.st9{fill:#068E53;}
	.st10{fill:#FEAB40;}
	.st11{fill:#FCFCFC;}
	.st12{fill:#4A7BB3;}
	.st13{fill:#4F81BB;}
	.st14{fill:#3F76B5;}
	.st15{fill:#4B7EBA;}
	.st16{fill:#4A7EB9;}
	.st17{fill:#4D80BA;}
</style>
<g id="文字">
	<text transform="matrix(1.0693 0 0 1 36.9863 21.96)" class="st0 st1 st2">白井市</text>
</g>
<g id="ロゴ">
	<g id="xkFOLH.tif">
		<g>
			<path class="st3" d="M25.5,10.7c1.1,0.6,1.8,1.5,2.3,2.7c0.6,1.6,0.4,3.2-0.2,4.8c-0.9,2.3-2.4,4-4.4,5.4c-2.2,1.6-4.6,2.7-7.3,3
				c-1.7,0.2-3.4,0.1-5-0.6c-2.4-1-3.7-3.4-3.2-6c0.4-2.3,1.6-4.2,3.3-5.8c0.3,0,0.4,0.2,0.4,0.5c-0.2,0.4-0.5,0.7-0.7,1
				c-0.5,0.7-1,1.5-1.2,2.4c-0.4,1.7,0.4,3.1,2,3.7c1.2,0.4,2.3,0.4,3.5,0.2c2.4-0.4,4.5-1.5,6.3-3.2c0.9-0.8,1.7-1.8,2.3-2.9
				c0.2-0.4,0.3-0.8,0.4-1.1v-0.1c0-0.1,0.1-0.1,0.1-0.2c0.6-0.7,1.1-1.5,1.2-2.5c0-0.3,0-0.5,0-0.8C25.4,11,25.4,10.9,25.5,10.7z"
				/>
			<path class="st4" d="M25.5,10.7c0.3,1.5-0.2,2.7-1.2,3.7c-0.1,0-0.1-0.1-0.1-0.1c0,0.1,0,0.2,0,0.3l0,0c-0.4,0.5-0.9,0.8-1.5,1.1
				c-1.3,0.7-2.6,1-4.1,1.1c-1.6,0.1-3.1-0.1-4.5-0.6c-0.9-0.3-1.6-0.8-2.3-1.3c-0.1-0.1-0.2-0.2-0.3-0.3c0-0.1,0.1-0.2,0.1-0.3
				c0.6-0.7,1.4-1.2,2.1-1.7c0.1-0.1,0.2-0.1,0.3-0.1c0.4,0.1,0.7,0.3,1.1,0.4c2.3,0.6,4.5,0.6,6.6-0.5c0.5-0.3,0.9-0.6,1.3-1
				c0.3-0.4,0.5-0.8,0.5-1.3c0-0.6-0.3-1.1-0.7-1.6c-0.4-0.4-0.9-0.7-1.4-1c-0.1,0-0.2-0.1-0.3-0.2c0-0.2,0.1-0.3,0.3-0.4
				C23.3,7.5,24.8,8.6,25.5,10.7z"/>
			<path class="st5" d="M21.3,6.9C21.2,7,21.1,7.1,21,7.2c-0.1,0.2-0.3,0.4-0.5,0.6c-1.3,1.2-2.8,1.9-4.6,2c-1.1,0.1-2.2-0.2-3-1.1
				c-0.1-0.1-0.1-0.1-0.2-0.2c0-0.1,0-0.2,0.1-0.2c0.5-0.5,1-0.8,1.7-1c1.1,0.2,2.2-0.1,3.2-0.6h0.1c0.1,0,0.2,0,0.4,0
				c-0.1,0-0.2,0-0.2-0.1c0.1-0.2,0.3-0.2,0.4-0.3h0.1h0.1l-0.1-0.1C18.6,6,18.7,6,18.9,5.8c0.5-0.5,1-1,1.2-1.7
				C20.6,2.9,20,2,18.8,1.8c-0.7-0.1-1.4,0-2.1,0.3c-1.1,0.4-2.2,1.1-2.9,2.1c-0.3,0.4-0.5,0.8-0.6,1.3s0,0.9,0.3,1.3
				c0.1,0.1,0.2,0.2,0.2,0.3v0.1c-0.4,0.3-0.8,0.5-1.3,0.6c-0.3-0.6-0.2-1.3,0-1.9c0.3-1.1,1-1.9,1.8-2.6c1.4-1.2,3-1.9,4.9-1.9
				c0.5,0,1.1,0.1,1.6,0.4c1.3,0.6,1.9,1.9,1.5,3.3C22.1,5.7,21.7,6.3,21.3,6.9z"/>
			<path class="st4" d="M17.8,6.7L17.8,6.7c-0.7,0.2-1.4,0.1-2.1,0.3c-0.4,0.1-0.8,0.3-1.3,0.3c-0.6,0.3-1.2,0.6-1.7,1.1
				c0,0.1-0.1,0.2-0.1,0.3c-0.7,1-0.6,2,0.2,2.8c0.2,0.2,0.4,0.3,0.6,0.6c0,0.1-0.1,0.2-0.2,0.2c-0.7,0.4-1.3,0.9-1.9,1.5
				C11.2,13.9,11.1,14,11,14c-1.3-1.5-1.3-3.6,0.1-5.2C11.5,8.4,12,8,12.4,7.7c0.4-0.3,0.8-0.5,1.3-0.7c0.1-0.1,0.2-0.2,0.3-0.2
				c1-0.4,2.1-0.6,3.1-0.6c0.2,0,0.4-0.1,0.7-0.1c0.2,0,0.3,0,0.5,0.1v0.1c-0.1,0.1-0.3,0.2-0.4,0.3C17.9,6.7,17.9,6.7,17.8,6.7z"/>
			<path class="st6" d="M11,14.1c0.8-0.7,1.5-1.3,2.4-1.9h0.1c0.1,0.1,0.3,0.1,0.5,0.2v0.1c-0.9,0.6-1.8,1.2-2.5,2
				c0,0.1,0,0.1-0.1,0.1C11.3,14.4,11.1,14.3,11,14.1L11,14.1z"/>
			<path class="st7" d="M11.3,14.6c0,0,0.1,0,0.1-0.1c0.6,0.7,1.4,1.1,2.2,1.5c3.2,1.2,6.3,1.1,9.3-0.5c0.4-0.2,0.8-0.6,1.1-0.8
				c-0.3,1.2-0.9,2.2-1.7,3.1c-2.1,2.4-4.7,3.8-7.9,4.3c-0.9,0.1-1.7,0.1-2.6-0.1c-2.1-0.5-3-2.2-2.4-4.3c0.3-1,0.8-1.8,1.4-2.6
				C11.1,14.9,11.2,14.7,11.3,14.6z"/>
			<path class="st8" d="M24.1,14.6c0-0.1,0-0.2,0-0.4c0.1,0.1,0.1,0.2,0.1,0.2C24.2,14.5,24.2,14.5,24.1,14.6z"/>
			<path class="st7" d="M13.5,12.2L13.5,12.2C13.4,12.2,13.4,12.2,13.5,12.2c-0.4-0.3-0.7-0.5-0.9-0.9c-0.7-0.9-0.6-2,0.2-2.9
				C14,9.7,15.5,9.8,17,9.5c1.5-0.3,2.7-1.1,3.8-2.1c0.1-0.1,0.1-0.1,0.2-0.2c0.5,0.3,1,0.5,1.5,0.9c0.5,0.5,1,1.1,1,1.8
				c-0.3,0.1-0.6-0.1-0.9-0.1c-1.4-0.2-2.8-0.1-4.2,0.3c-1.6,0.4-3.2,1-4.6,1.9C13.7,12.1,13.6,12.2,13.5,12.2z"/>
			<path class="st7" d="M14,12.5C14,12.5,13.9,12.5,14,12.5c0.2-0.3,0.6-0.5,0.9-0.6c1.4-0.7,2.9-1.2,4.5-1.4c1.1-0.1,2.3,0,3.3,0.5
				c0.1,0.1,0.3,0.1,0.4,0.3c-0.7,0.9-1.6,1.3-2.7,1.6C18.2,13.6,16,13.5,14,12.5z"/>
			<path class="st9" d="M23,11.3c-1.1-0.8-2.4-0.9-3.8-0.8c-1.8,0.2-3.5,0.8-5.1,1.8c-0.1,0-0.1,0.1-0.2,0.1
				c-0.1-0.1-0.4-0.1-0.5-0.3c0.6-0.5,1.4-0.9,2.1-1.2c2.1-0.9,4.2-1.4,6.4-1.3c0.5,0,1,0.1,1.4,0.2C23.5,10.5,23.3,10.9,23,11.3z"
				/>
			<path class="st10" d="M24.2,13.5c0-0.1-0.1-0.2,0-0.3C24.2,13.3,24.2,13.4,24.2,13.5z"/>
			<path class="st7" d="M18.4,6.3c-1.5-0.1-2.9,0.1-4.3,0.6C14,7,13.9,7,13.8,7.1c-0.7-0.8-0.8-1.5-0.2-2.5c1.1-1.8,2.8-2.6,4.9-2.8
				c0.2,0,0.5,0,0.7,0.1c1,0.2,1.5,1.1,1.1,2.1c-0.2,0.7-0.7,1.3-1.3,1.8c-0.1,0.1-0.3,0.2-0.4,0.4C18.6,6.3,18.5,6.3,18.4,6.3z"/>
			<path class="st11" d="M14.5,7.3c1.1-0.4,2.1-0.6,3.3-0.6C16.7,7.3,15.6,7.6,14.5,7.3z"/>
			<path class="st12" d="M17.8,6.7c0-0.1,0.1-0.1,0.2-0.1c0.1,0.1,0.2,0,0.3,0.1C18.1,6.7,17.9,6.7,17.8,6.7z"/>
			<path class="st13" d="M19,6.8c-0.1,0-0.2,0.1-0.3,0C18.8,6.7,18.9,6.7,19,6.8z"/>
			<path class="st14" d="M18.4,6.3c0.1,0,0.1-0.1,0.2-0.1l0.1,0.1C18.6,6.4,18.5,6.3,18.4,6.3L18.4,6.3z"/>
			<path class="st15" d="M19.2,6.4c-0.1,0-0.2,0-0.3,0C19,6.3,19.1,6.3,19.2,6.4z"/>
			<path class="st16" d="M19.6,6.4c-0.1,0-0.1,0-0.2,0C19.5,6.4,19.5,6.4,19.6,6.4z"/>
			<path class="st17" d="M19.5,6.8c-0.1,0-0.2,0-0.2,0S19.4,6.8,19.5,6.8z"/>
		</g>
	</g>
</g>
</svg>
